<svg width="1001" height="243" viewBox="0 0 1001 243" fill="none" xmlns="http://www.w3.org/2000/svg">
<g clip-path="url(#clip0_1639_3169)">
<path d="M351.899 154.61V161.01H290.699V157.21V157.01L339.899 87.2101H293.699V80.8101H350.899V84.4101V84.6101L301.699 154.61H351.899Z" fill="#19192C"/>
<path d="M439.698 154.61V161.01H396.898V80.8101H438.298V87.2101H404.498V114.21H435.098V120.61H404.498V154.61H439.698Z" fill="#19192C"/>
<path d="M558.7 80.81V161.81H554.7L554.5 161.61L497.3 101.01C494.7 98.41 492.7 96.21 491.5 94.61L491.7 103.61V161.21H484.1V80.01H488.1L488.3 80.21L544.3 140.01C547.1 143.01 549.5 145.61 551.3 147.81C551.1 145.01 551.1 141.81 551.1 138.61V80.81H558.7Z" fill="#19192C"/>
<path d="M658.3 154.41V161.01H611.5V80.8101H619.1V154.41H658.3Z" fill="#19192C"/>
<path d="M725.299 80.81L725.099 80.21H720.499L684.299 159.81L683.699 161.21H691.699L703.899 134.01H740.899L752.899 160.61L753.099 161.21H761.499L725.299 80.81ZM707.099 127.41L719.499 99.81H719.699V99.61C720.499 97.61 721.499 95.41 722.499 92.81C722.499 93.01 722.699 93.21 722.699 93.21C723.299 94.81 724.499 97.01 725.899 99.81L738.499 127.61H707.099V127.41Z" fill="#19192C"/>
<path d="M875.099 80.81V161.81H871.099L870.699 161.61L813.499 101.01L807.699 95.61L807.899 103.81V161.41H800.299V80.01H804.299L804.499 80.21L860.699 140.01C863.499 143.01 865.699 145.61 867.699 147.81C867.499 145.01 867.499 141.81 867.499 138.61V80.81H875.099Z" fill="#19192C"/>
<path d="M997.098 105.01C994.898 99.81 991.498 95.21 986.898 91.41C977.898 83.81 966.698 80.01 953.298 80.01C945.098 80.01 936.698 80.21 928.698 80.81H927.898V160.81H928.698C938.898 161.61 948.098 162.01 956.098 162.01C968.498 162.01 978.898 158.81 987.298 152.61C991.298 149.61 994.698 145.41 996.898 140.41C999.298 135.21 1000.5 129.21 1000.5 122.61C1000.5 116.21 999.298 110.21 997.098 105.01ZM982.498 147.21C975.898 152.61 967.098 155.21 956.098 155.21C947.498 155.21 940.498 155.01 935.498 154.41V87.21C940.698 86.81 946.698 86.61 953.498 86.61C964.498 86.61 973.898 90.01 981.298 96.41C988.698 102.81 992.498 111.61 992.498 122.61C992.498 133.41 989.098 141.81 982.498 147.21Z" fill="#19192C"/>
<path d="M164.897 149.337C158.497 159.137 161.097 172.137 170.897 178.737C180.697 185.137 193.697 182.537 200.297 172.737C206.697 162.937 204.097 149.937 194.297 143.337C184.297 136.937 171.297 139.737 164.897 149.337Z" fill="#19192C"/>
<path d="M43.8973 69.9362C37.4973 79.7362 40.0973 92.7362 49.8973 99.3362C59.6973 105.736 72.6973 103.136 79.2973 93.3362C85.8973 83.5362 83.0973 70.5362 73.2973 63.9362C63.4973 57.5362 50.4973 60.3362 43.8973 69.9362Z" fill="#19192C"/>
<path fill-rule="evenodd" clip-rule="evenodd" d="M159.897 63.9356C191.697 84.7356 200.497 127.536 179.697 159.136C175.897 164.936 171.297 170.136 166.097 174.336C167.497 175.936 169.097 177.536 170.897 178.736C171.097 178.736 171.297 178.936 171.297 178.936C176.697 174.336 181.297 168.936 185.497 162.936C208.497 127.936 198.697 80.9356 163.697 57.9356C141.839 43.5499 115.569 41.7977 93.1289 51.0849C90.7766 52.0585 90.0043 54.9714 91.6908 56.8785V56.8785C92.6198 57.9291 94.2981 58.3765 95.5923 57.8363C116.125 49.265 139.993 50.795 159.897 63.9356ZM152.541 185.706C154.098 187.566 153.575 190.477 151.339 191.417C128.83 200.873 102.472 199.197 80.4973 184.736C45.4973 161.736 35.6973 114.736 58.6973 79.7356C62.6973 73.5356 67.4973 68.3356 72.8973 63.7356C73.0973 63.7356 73.2973 63.9356 73.2973 63.9356C75.2973 65.1356 76.8973 66.7356 78.0973 68.3356C72.8973 72.5356 68.2973 77.7356 64.4973 83.5356C43.6973 115.336 52.4973 157.936 84.2973 178.736C104.125 191.826 128.071 193.301 148.565 184.833C149.981 184.248 151.557 184.531 152.541 185.706V185.706Z" fill="#19192C"/>
</g>
<defs>
<clipPath id="clip0_1639_3169">
<rect width="1000" height="242" fill="white" transform="translate(0.5 0.0100098)"/>
</clipPath>
</defs>
</svg>